<svg xmlns="http://www.w3.org/2000/svg"  viewBox="0 0 48 48" width="48px" height="48px"><linearGradient id="SVGID_1_" x1="33.414" x2="14.586" y1="1.586" y2="20.414" gradientUnits="userSpaceOnUse"><stop offset="0" stop-color="#6560fe"/><stop offset=".033" stop-color="#6f6afe"/><stop offset=".197" stop-color="#9a97fe"/><stop offset=".362" stop-color="#bfbdff"/><stop offset=".525" stop-color="#dbdaff"/><stop offset=".687" stop-color="#efeeff"/><stop offset=".846" stop-color="#fbfbff"/><stop offset="1" stop-color="#fff"/></linearGradient><path fill="url(#SVGID_1_)" d="M38.5,7.5h-29c-1.105,0-2,0.895-2,2v3c0,1.105,0.895,2,2,2h29c1.105,0,2-0.895,2-2v-3 C40.5,8.395,39.605,7.5,38.5,7.5z"/><linearGradient id="SVGID_00000064320163121433228050000006376363254507691938_" x1="33.414" x2="14.586" y1="14.586" y2="33.414" gradientUnits="userSpaceOnUse"><stop offset="0" stop-color="#6560fe"/><stop offset=".033" stop-color="#6f6afe"/><stop offset=".197" stop-color="#9a97fe"/><stop offset=".362" stop-color="#bfbdff"/><stop offset=".525" stop-color="#dbdaff"/><stop offset=".687" stop-color="#efeeff"/><stop offset=".846" stop-color="#fbfbff"/><stop offset="1" stop-color="#fff"/></linearGradient><path fill="url(#SVGID_00000064320163121433228050000006376363254507691938_)" d="M38.5,20.5h-29c-1.105,0-2,0.895-2,2v3 c0,1.105,0.895,2,2,2h29c1.105,0,2-0.895,2-2v-3C40.5,21.395,39.605,20.5,38.5,20.5z"/><linearGradient id="SVGID_00000121250615449542995740000017490919689036045745_" x1="33.414" x2="14.586" y1="27.586" y2="46.414" gradientUnits="userSpaceOnUse"><stop offset="0" stop-color="#6560fe"/><stop offset=".033" stop-color="#6f6afe"/><stop offset=".197" stop-color="#9a97fe"/><stop offset=".362" stop-color="#bfbdff"/><stop offset=".525" stop-color="#dbdaff"/><stop offset=".687" stop-color="#efeeff"/><stop offset=".846" stop-color="#fbfbff"/><stop offset="1" stop-color="#fff"/></linearGradient><path fill="url(#SVGID_00000121250615449542995740000017490919689036045745_)" d="M38.5,33.5h-29c-1.105,0-2,0.895-2,2v3 c0,1.105,0.895,2,2,2h29c1.105,0,2-0.895,2-2v-3C40.5,34.395,39.605,33.5,38.5,33.5z"/><path fill="none" stroke="#8251fe" stroke-linecap="round" stroke-linejoin="round" stroke-miterlimit="10" stroke-width="3" d="M36.149,7.5H38.5c1.105,0,2,0.895,2,2v3c0,1.105-0.895,2-2,2H17.979"/><path fill="none" stroke="#8251fe" stroke-linecap="round" stroke-linejoin="round" stroke-miterlimit="10" stroke-width="3" d="M12.957,14.5H9.5c-1.105,0-2-0.895-2-2v-3c0-1.105,0.895-2,2-2h21.33"/><path fill="none" stroke="#8251fe" stroke-linecap="round" stroke-linejoin="round" stroke-miterlimit="10" stroke-width="3" d="M13.34,27.5H9.5c-1.105,0-2-0.895-2-2v-3c0-1.105,0.895-2,2-2h19.995"/><path fill="none" stroke="#8251fe" stroke-linecap="round" stroke-linejoin="round" stroke-miterlimit="10" stroke-width="3" d="M35,20.5h3.5c1.105,0,2,0.895,2,2v3c0,1.105-0.895,2-2,2H18.489"/><path fill="none" stroke="#8251fe" stroke-linecap="round" stroke-linejoin="round" stroke-miterlimit="10" stroke-width="3" d="M13.468,40.5H9.5c-1.105,0-2-0.895-2-2v-3c0-1.105,0.895-2,2-2h19.585"/><path fill="none" stroke="#8251fe" stroke-linecap="round" stroke-linejoin="round" stroke-miterlimit="10" stroke-width="3" d="M34.191,33.5H38.5c1.105,0,2,0.895,2,2v3c0,1.105-0.895,2-2,2H18.497"/></svg>